<svg width="108" height="24" viewBox="0 0 108 24" fill="none" xmlns="http://www.w3.org/2000/svg">
<path d="M13 12.175L15.25 14.425C15.4333 14.6083 15.525 14.8377 15.525 15.113C15.525 15.3877 15.4333 15.625 15.25 15.825C15.05 16.025 14.8127 16.125 14.538 16.125C14.2627 16.125 14.025 16.025 13.825 15.825L11.7 13.7C11.4667 13.4667 11.2917 13.2083 11.175 12.925C11.0583 12.6417 11 12.3333 11 12V9C11 8.71667 11.096 8.479 11.288 8.287C11.4793 8.09567 11.7167 8 12 8C12.2833 8 12.521 8.09567 12.713 8.287C12.9043 8.479 13 8.71667 13 9V12.175ZM12 4C12.2833 4 12.521 4.09567 12.713 4.287C12.9043 4.479 13 4.71667 13 5C13 5.28333 12.9043 5.521 12.713 5.713C12.521 5.90433 12.2833 6 12 6C11.7167 6 11.4793 5.90433 11.288 5.713C11.096 5.521 11 5.28333 11 5C11 4.71667 11.096 4.479 11.288 4.287C11.4793 4.09567 11.7167 4 12 4ZM20 12C20 12.2833 19.904 12.5207 19.712 12.712C19.5207 12.904 19.2833 13 19 13C18.7167 13 18.4793 12.904 18.288 12.712C18.096 12.5207 18 12.2833 18 12C18 11.7167 18.096 11.479 18.288 11.287C18.4793 11.0957 18.7167 11 19 11C19.2833 11 19.5207 11.0957 19.712 11.287C19.904 11.479 20 11.7167 20 12ZM12 18C12.2833 18 12.521 18.096 12.713 18.288C12.9043 18.4793 13 18.7167 13 19C13 19.2833 12.9043 19.5207 12.713 19.712C12.521 19.904 12.2833 20 12 20C11.7167 20 11.4793 19.904 11.288 19.712C11.096 19.5207 11 19.2833 11 19C11 18.7167 11.096 18.4793 11.288 18.288C11.4793 18.096 11.7167 18 12 18ZM6 12C6 12.2833 5.90433 12.5207 5.713 12.712C5.521 12.904 5.28333 13 5 13C4.71667 13 4.479 12.904 4.287 12.712C4.09567 12.5207 4 12.2833 4 12C4 11.7167 4.09567 11.479 4.287 11.287C4.479 11.0957 4.71667 11 5 11C5.28333 11 5.521 11.0957 5.713 11.287C5.90433 11.479 6 11.7167 6 12ZM12 22C10.6167 22 9.31667 21.7373 8.1 21.212C6.88333 20.6873 5.825 19.975 4.925 19.075C4.025 18.175 3.31267 17.1167 2.788 15.9C2.26267 14.6833 2 13.3833 2 12C2 10.6167 2.26267 9.31667 2.788 8.1C3.31267 6.88333 4.025 5.825 4.925 4.925C5.825 4.025 6.88333 3.31233 8.1 2.787C9.31667 2.26233 10.6167 2 12 2C13.3833 2 14.6833 2.26233 15.9 2.787C17.1167 3.31233 18.175 4.025 19.075 4.925C19.975 5.825 20.6873 6.88333 21.212 8.1C21.7373 9.31667 22 10.6167 22 12C22 13.3833 21.7373 14.6833 21.212 15.9C20.6873 17.1167 19.975 18.175 19.075 19.075C18.175 19.975 17.1167 20.6873 15.9 21.212C14.6833 21.7373 13.3833 22 12 22ZM12 20C14.2333 20 16.125 19.225 17.675 17.675C19.225 16.125 20 14.2333 20 12C20 9.76667 19.225 7.875 17.675 6.325C16.125 4.775 14.2333 4 12 4C9.76667 4 7.875 4.775 6.325 6.325C4.775 7.875 4 9.76667 4 12C4 14.2333 4.775 16.125 6.325 17.675C7.875 19.225 9.76667 20 12 20Z" fill="black"/>
<path d="M35.688 17.136C35.944 16.5493 36.296 16.0053 36.744 15.504C37.192 14.992 37.7573 14.4427 38.44 13.856C39.0907 13.2907 39.5547 12.8693 39.832 12.592C40.1093 12.304 40.3067 12.0213 40.424 11.744C40.5413 11.4667 40.6 11.1253 40.6 10.72C40.6 10.1547 40.4347 9.73333 40.104 9.456C39.7733 9.168 39.2453 9.024 38.52 9.024C37.7413 9.024 36.9253 9.184 36.072 9.504V7.968C36.456 7.84 36.8987 7.73867 37.4 7.664C37.912 7.57867 38.3973 7.536 38.856 7.536C39.9867 7.536 40.8507 7.81867 41.448 8.384C42.0453 8.93867 42.344 9.712 42.344 10.704C42.344 11.376 42.1787 11.9573 41.848 12.448C41.528 12.9387 41.0267 13.4933 40.344 14.112L40.072 14.352C39.4747 14.8747 39.016 15.296 38.696 15.616C38.3867 15.9253 38.1253 16.272 37.912 16.656H42.456V18H35.688V17.136ZM53.2065 18.16C52.1078 18.16 51.2545 17.872 50.6465 17.296C50.0492 16.7093 49.7505 15.76 49.7505 14.448C49.7505 13.5627 49.9052 12.8053 50.2145 12.176C50.5238 11.5467 50.9505 11.072 51.4945 10.752C52.0385 10.4213 52.6625 10.256 53.3665 10.256C53.8145 10.256 54.2198 10.3093 54.5825 10.416C54.9452 10.5227 55.2918 10.688 55.6225 10.912V7.216H57.3665V18H55.8785L55.7665 17.248C55.4145 17.568 55.0358 17.8027 54.6305 17.952C54.2252 18.0907 53.7505 18.16 53.2065 18.16ZM53.6705 16.848C54.4492 16.848 55.0998 16.5813 55.6225 16.048V12.256C55.1212 11.808 54.4918 11.584 53.7345 11.584C52.9985 11.584 52.4438 11.8293 52.0705 12.32C51.6972 12.8107 51.5105 13.5253 51.5105 14.464C51.5105 15.3493 51.6758 15.968 52.0065 16.32C52.3478 16.672 52.9025 16.848 53.6705 16.848ZM61.6729 18.16C60.9049 18.16 60.2649 17.9627 59.7529 17.568C59.2409 17.1627 58.9849 16.5867 58.9849 15.84C58.9849 15.0933 59.2355 14.5067 59.7369 14.08C60.2489 13.6427 61.0115 13.424 62.0249 13.424H64.4569V13.088C64.4569 12.7147 64.3982 12.4267 64.2809 12.224C64.1742 12.0107 63.9715 11.856 63.6729 11.76C63.3742 11.664 62.9475 11.616 62.3929 11.616C61.4969 11.616 60.6595 11.7493 59.8809 12.016V10.72C60.2435 10.5813 60.6702 10.4693 61.1609 10.384C61.6515 10.2987 62.1689 10.256 62.7129 10.256C63.8435 10.256 64.6915 10.4853 65.2569 10.944C65.8329 11.4027 66.1209 12.128 66.1209 13.12V18H64.6329L64.5209 17.232C64.2009 17.5413 63.8115 17.776 63.3529 17.936C62.8942 18.0853 62.3342 18.16 61.6729 18.16ZM62.1369 16.912C62.6382 16.912 63.0862 16.8267 63.4809 16.656C63.8755 16.4853 64.2009 16.2453 64.4569 15.936V14.608H62.0569C61.5449 14.608 61.1715 14.704 60.9369 14.896C60.7129 15.088 60.6009 15.392 60.6009 15.808C60.6009 16.192 60.7289 16.4747 60.9849 16.656C61.2409 16.8267 61.6249 16.912 62.1369 16.912ZM69.0481 20.816C68.4721 20.816 67.9815 20.7413 67.5761 20.592V19.296C67.8748 19.4027 68.2001 19.456 68.5521 19.456C68.8721 19.456 69.1335 19.4027 69.3361 19.296C69.5388 19.2 69.7148 19.0453 69.8641 18.832C70.0135 18.6187 70.1895 18.3093 70.3921 17.904L67.0161 10.416H68.8241L71.2561 16.048L73.7201 10.416H75.5121L72.4241 17.568C71.9655 18.656 71.4855 19.4667 70.9841 20C70.4935 20.544 69.8481 20.816 69.0481 20.816ZM85.1885 18.16C84.4205 18.16 83.7805 17.9627 83.2685 17.568C82.7565 17.1627 82.5005 16.5867 82.5005 15.84C82.5005 15.0933 82.7512 14.5067 83.2525 14.08C83.7645 13.6427 84.5272 13.424 85.5405 13.424H87.9725V13.088C87.9725 12.7147 87.9138 12.4267 87.7965 12.224C87.6898 12.0107 87.4872 11.856 87.1885 11.76C86.8898 11.664 86.4632 11.616 85.9085 11.616C85.0125 11.616 84.1752 11.7493 83.3965 12.016V10.72C83.7592 10.5813 84.1858 10.4693 84.6765 10.384C85.1672 10.2987 85.6845 10.256 86.2285 10.256C87.3592 10.256 88.2072 10.4853 88.7725 10.944C89.3485 11.4027 89.6365 12.128 89.6365 13.12V18H88.1485L88.0365 17.232C87.7165 17.5413 87.3272 17.776 86.8685 17.936C86.4098 18.0853 85.8498 18.16 85.1885 18.16ZM85.6525 16.912C86.1538 16.912 86.6018 16.8267 86.9965 16.656C87.3912 16.4853 87.7165 16.2453 87.9725 15.936V14.608H85.5725C85.0605 14.608 84.6872 14.704 84.4525 14.896C84.2285 15.088 84.1165 15.392 84.1165 15.808C84.1165 16.192 84.2445 16.4747 84.5005 16.656C84.7565 16.8267 85.1405 16.912 85.6525 16.912ZM94.6425 20.816C94.0558 20.816 93.4798 20.7787 92.9145 20.704C92.3598 20.6293 91.8905 20.528 91.5065 20.4V19.056C91.9118 19.1947 92.3918 19.3013 92.9465 19.376C93.5012 19.4507 94.0398 19.488 94.5625 19.488C95.3732 19.488 95.9438 19.44 96.2745 19.344C96.6052 19.2587 96.7705 19.072 96.7705 18.784C96.7705 18.56 96.6798 18.4 96.4985 18.304C96.3278 18.2187 96.0078 18.176 95.5385 18.176H93.4905C92.8185 18.176 92.3065 18.0533 91.9545 17.808C91.6025 17.552 91.4265 17.1893 91.4265 16.72C91.4265 16.3893 91.5225 16.096 91.7145 15.84C91.9065 15.5733 92.1892 15.376 92.5625 15.248C91.7092 14.832 91.2825 14.0907 91.2825 13.024C91.2825 12.064 91.5705 11.3653 92.1465 10.928C92.7225 10.48 93.5972 10.256 94.7705 10.256C95.1972 10.256 95.6612 10.3093 96.1625 10.416H98.9465L98.8985 11.552H97.6185C98.0132 11.904 98.2105 12.3947 98.2105 13.024C98.2105 13.856 97.9598 14.5013 97.4585 14.96C96.9678 15.408 96.2318 15.632 95.2505 15.632C94.9945 15.632 94.6798 15.6053 94.3065 15.552C93.9652 15.584 93.6718 15.6747 93.4265 15.824C93.1812 15.9627 93.0585 16.144 93.0585 16.368C93.0585 16.528 93.1225 16.6453 93.2505 16.72C93.3785 16.784 93.5918 16.816 93.8905 16.816H96.0185C96.7758 16.816 97.3572 16.9813 97.7625 17.312C98.1785 17.632 98.3865 18.1013 98.3865 18.72C98.3865 19.456 98.0718 19.9893 97.4425 20.32C96.8238 20.6507 95.8905 20.816 94.6425 20.816ZM94.7705 14.528C95.4638 14.528 95.9438 14.416 96.2105 14.192C96.4878 13.9573 96.6265 13.552 96.6265 12.976C96.6265 12.4 96.4878 11.9893 96.2105 11.744C95.9332 11.488 95.4532 11.36 94.7705 11.36C94.1092 11.36 93.6292 11.488 93.3305 11.744C93.0425 11.9893 92.8985 12.4 92.8985 12.976C92.8985 13.5307 93.0372 13.9307 93.3145 14.176C93.6025 14.4107 94.0878 14.528 94.7705 14.528ZM103.015 18.16C100.38 18.16 99.063 16.8427 99.063 14.208C99.063 11.5733 100.38 10.256 103.015 10.256C105.66 10.256 106.983 11.5733 106.983 14.208C106.983 16.8427 105.66 18.16 103.015 18.16ZM103.015 16.688C103.815 16.688 104.38 16.496 104.711 16.112C105.052 15.728 105.223 15.0933 105.223 14.208C105.223 13.3333 105.052 12.704 104.711 12.32C104.38 11.936 103.815 11.744 103.015 11.744C102.226 11.744 101.66 11.936 101.319 12.32C100.988 12.704 100.823 13.3333 100.823 14.208C100.823 15.0933 100.988 15.728 101.319 16.112C101.66 16.496 102.226 16.688 103.015 16.688Z" fill="black"/>
</svg>
